<svg xmlns="http://www.w3.org/2000/svg" width="968" height="412" viewBox="0 0 968 412" role="img" aria-labelledby="t d">
<title id="t">A Finder window walking through projects, focus and toolbox</title>
<desc id="d">A macOS Tahoe Finder window in list view. The sidebar selection moves from projects to focus to toolbox every 4 seconds and the listing follows it. projects holds convert.in, qr.in, snipsearch, stelegraphy. focus holds authorization.md, ssrf.md, exposed-config.md, local-first.md, reporting.md. toolbox holds TypeScript, Node, PowerShell, Python, Burp Suite, Docker, Kubernetes, WSL. certifications holds aws-cloud-genai.pdf, azure-genai.pdf, backend-javascript.pdf, javascript-dasar.pdf, microsoft-fabric.pdf, python-dasar.pdf. awards holds technotainment-uiux.pdf, iofest-webdev.pdf, lks-cybersecurity.pdf, ibfest-cyberlite.pdf, samsung-ai.pdf, ehax-ctf.pdf, jhic-infra.pdf.</desc>
<style>
.w { font-family: "SF Pro Text", -apple-system, BlinkMacSystemFont, "Helvetica Neue", "Segoe UI", Arial, sans-serif; font-size: 15px; font-weight: 600; }
.b { font-family: "SF Pro Text", -apple-system, BlinkMacSystemFont, "Helvetica Neue", "Segoe UI", Arial, sans-serif; font-size: 13px; }
.s { font-family: "SF Pro Text", -apple-system, BlinkMacSystemFont, "Helvetica Neue", "Segoe UI", Arial, sans-serif; font-size: 11px; font-weight: 500; }
.still { display: none; }
@media (prefers-reduced-motion: reduce) {
  .cycle { display: none; }
  .still { display: inline; }
}
</style>
<defs><clipPath id="win"><rect x="34" y="34" width="900" height="344" rx="26"/></clipPath><filter id="sh" x="-30%" y="-30%" width="160%" height="160%"><feDropShadow dx="0" dy="9" stdDeviation="13" flood-color="#000000" flood-opacity="0.55"/></filter></defs><g filter="url(#sh)"><rect x="34" y="34" width="900" height="344" rx="26" fill="#1f1f21"/></g><g clip-path="url(#win)"><rect x="204" y="34" width="730" height="52" fill="#2a2a2d"/><rect x="34" y="34" width="170" height="344" fill="#2a2a2d"/><path d="M204 34v344" stroke="#3a3a3d" stroke-width="1"/><text class="s" x="52" y="104" fill="#8e8e93">Favourites</text><circle cx="60" cy="128" r="6.5" fill="none" stroke="#4d9dfb" stroke-width="1.5"/><circle cx="60" cy="128" r="2.5" fill="#4d9dfb"/><text class="b" x="76" y="131" fill="#f5f5f7">AirDrop</text><circle cx="60" cy="155" r="7" fill="none" stroke="#4d9dfb" stroke-width="1.5"/><path d="M60 151v4.5l3 2" fill="none" stroke="#4d9dfb" stroke-width="1.5" stroke-linecap="round"/><text class="b" x="76" y="159" fill="#f5f5f7">Recents</text><path d="M54.5 188.5l5.5-11 5.5 11" fill="none" stroke="#4d9dfb" stroke-width="1.6" stroke-linecap="round" stroke-linejoin="round"/><path d="M57.2 184.5h5.6" stroke="#4d9dfb" stroke-width="1.6" stroke-linecap="round"/><text class="b" x="76" y="187" fill="#f5f5f7">Applications</text><g transform="translate(52,204) scale(0.938)"><path d="M0 3.5a2 2 0 0 1 2-2h4l1.6 1.6H14a2 2 0 0 1 2 2V13a2 2 0 0 1-2 2H2a2 2 0 0 1-2-2Z" fill="#4d9dfb"/><path d="M0 6h16v7a2 2 0 0 1-2 2H2a2 2 0 0 1-2-2Z" fill="#4d9dfb" fill-opacity="0.75"/></g><text class="b" x="76" y="215" fill="#f5f5f7">projects</text><g transform="translate(52,232) scale(0.938)"><path d="M0 3.5a2 2 0 0 1 2-2h4l1.6 1.6H14a2 2 0 0 1 2 2V13a2 2 0 0 1-2 2H2a2 2 0 0 1-2-2Z" fill="#4d9dfb"/><path d="M0 6h16v7a2 2 0 0 1-2 2H2a2 2 0 0 1-2-2Z" fill="#4d9dfb" fill-opacity="0.75"/></g><text class="b" x="76" y="243" fill="#f5f5f7">focus</text><g transform="translate(52,260) scale(0.938)"><path d="M0 3.5a2 2 0 0 1 2-2h4l1.6 1.6H14a2 2 0 0 1 2 2V13a2 2 0 0 1-2 2H2a2 2 0 0 1-2-2Z" fill="#4d9dfb"/><path d="M0 6h16v7a2 2 0 0 1-2 2H2a2 2 0 0 1-2-2Z" fill="#4d9dfb" fill-opacity="0.75"/></g><text class="b" x="76" y="271" fill="#f5f5f7">toolbox</text><g transform="translate(52,288) scale(0.938)"><path d="M0 3.5a2 2 0 0 1 2-2h4l1.6 1.6H14a2 2 0 0 1 2 2V13a2 2 0 0 1-2 2H2a2 2 0 0 1-2-2Z" fill="#4d9dfb"/><path d="M0 6h16v7a2 2 0 0 1-2 2H2a2 2 0 0 1-2-2Z" fill="#4d9dfb" fill-opacity="0.75"/></g><text class="b" x="76" y="299" fill="#f5f5f7">certifications</text><g transform="translate(52,316) scale(0.938)"><path d="M0 3.5a2 2 0 0 1 2-2h4l1.6 1.6H14a2 2 0 0 1 2 2V13a2 2 0 0 1-2 2H2a2 2 0 0 1-2-2Z" fill="#4d9dfb"/><path d="M0 6h16v7a2 2 0 0 1-2 2H2a2 2 0 0 1-2-2Z" fill="#4d9dfb" fill-opacity="0.75"/></g><text class="b" x="76" y="327" fill="#f5f5f7">awards</text><path d="M204 111h730" stroke="#3a3a3d" stroke-width="1"/><g class="cycle"><g opacity="1"><rect x="42" y="198" width="154" height="26" rx="13" fill="#0a63fe"/><g transform="translate(52,204) scale(0.938)"><path d="M0 3.5a2 2 0 0 1 2-2h4l1.6 1.6H14a2 2 0 0 1 2 2V13a2 2 0 0 1-2 2H2a2 2 0 0 1-2-2Z" fill="#ffffff"/><path d="M0 6h16v7a2 2 0 0 1-2 2H2a2 2 0 0 1-2-2Z" fill="#ffffff" fill-opacity="0.75"/></g><text class="b" x="76" y="215" fill="#ffffff">projects</text><path d="M494 92v13" stroke="#3a3a3d" stroke-width="1"/><path d="M664 92v13" stroke="#3a3a3d" stroke-width="1"/><path d="M764 92v13" stroke="#3a3a3d" stroke-width="1"/><text class="s" x="254" y="103" text-anchor="start" fill="#9a9aa0">Name</text><text class="s" x="504" y="103" text-anchor="start" fill="#9a9aa0">Date Modified</text><text class="s" x="754" y="103" text-anchor="end" fill="#9a9aa0">Size</text><text class="s" x="778" y="103" text-anchor="start" fill="#9a9aa0">Tags</text><path d="M476 100l3.5-4 3.5 4" fill="none" stroke="#9a9aa0" stroke-width="1.4" stroke-linecap="round" stroke-linejoin="round"/><path d="M218 119l4 4-4 4" fill="none" stroke="#9a9aa0" stroke-width="1.5" stroke-linecap="round" stroke-linejoin="round"/><g transform="translate(230,115) scale(1.000)"><path d="M0 3.5a2 2 0 0 1 2-2h4l1.6 1.6H14a2 2 0 0 1 2 2V13a2 2 0 0 1-2 2H2a2 2 0 0 1-2-2Z" fill="#4d9dfb"/><path d="M0 6h16v7a2 2 0 0 1-2 2H2a2 2 0 0 1-2-2Z" fill="#4d9dfb" fill-opacity="0.75"/></g><text class="b" x="254" y="127" fill="#f5f5f7">convert.in</text><text class="b" x="504" y="127" text-anchor="start" fill="#9a9aa0">Sep 3, 2026 at 00:28</text><text class="b" x="754" y="127" text-anchor="end" fill="#9a9aa0">1.3 MB</text><circle cx="782" cy="123" r="4.5" fill="#3178c6"/><text class="b" x="794" y="127" fill="#9a9aa0">TypeScript</text><rect x="204" y="135" width="730" height="24" fill="#252528"/><path d="M218 143l4 4-4 4" fill="none" stroke="#9a9aa0" stroke-width="1.5" stroke-linecap="round" stroke-linejoin="round"/><g transform="translate(230,139) scale(1.000)"><path d="M0 3.5a2 2 0 0 1 2-2h4l1.6 1.6H14a2 2 0 0 1 2 2V13a2 2 0 0 1-2 2H2a2 2 0 0 1-2-2Z" fill="#4d9dfb"/><path d="M0 6h16v7a2 2 0 0 1-2 2H2a2 2 0 0 1-2-2Z" fill="#4d9dfb" fill-opacity="0.75"/></g><text class="b" x="254" y="151" fill="#f5f5f7">qr.in</text><text class="b" x="504" y="151" text-anchor="start" fill="#9a9aa0">Sep 4, 2026 at 07:49</text><text class="b" x="754" y="151" text-anchor="end" fill="#9a9aa0">229 KB</text><circle cx="782" cy="147" r="4.5" fill="#e34c26"/><text class="b" x="794" y="151" fill="#9a9aa0">HTML</text><path d="M218 167l4 4-4 4" fill="none" stroke="#9a9aa0" stroke-width="1.5" stroke-linecap="round" stroke-linejoin="round"/><g transform="translate(230,163) scale(1.000)"><path d="M0 3.5a2 2 0 0 1 2-2h4l1.6 1.6H14a2 2 0 0 1 2 2V13a2 2 0 0 1-2 2H2a2 2 0 0 1-2-2Z" fill="#4d9dfb"/><path d="M0 6h16v7a2 2 0 0 1-2 2H2a2 2 0 0 1-2-2Z" fill="#4d9dfb" fill-opacity="0.75"/></g><text class="b" x="254" y="175" fill="#f5f5f7">snipsearch</text><text class="b" x="504" y="175" text-anchor="start" fill="#9a9aa0">Sep 4, 2026 at 00:08</text><text class="b" x="754" y="175" text-anchor="end" fill="#9a9aa0">29 KB</text><circle cx="782" cy="171" r="4.5" fill="#5391fe"/><text class="b" x="794" y="175" fill="#9a9aa0">PowerShell</text><rect x="204" y="183" width="730" height="24" fill="#252528"/><path d="M218 191l4 4-4 4" fill="none" stroke="#9a9aa0" stroke-width="1.5" stroke-linecap="round" stroke-linejoin="round"/><g transform="translate(230,187) scale(1.000)"><path d="M0 3.5a2 2 0 0 1 2-2h4l1.6 1.6H14a2 2 0 0 1 2 2V13a2 2 0 0 1-2 2H2a2 2 0 0 1-2-2Z" fill="#4d9dfb"/><path d="M0 6h16v7a2 2 0 0 1-2 2H2a2 2 0 0 1-2-2Z" fill="#4d9dfb" fill-opacity="0.75"/></g><text class="b" x="254" y="199" fill="#f5f5f7">stelegraphy</text><text class="b" x="504" y="199" text-anchor="start" fill="#9a9aa0">Sep 3, 2026 at 10:26</text><text class="b" x="754" y="199" text-anchor="end" fill="#9a9aa0">380 KB</text><circle cx="782" cy="195" r="4.5" fill="#3178c6"/><text class="b" x="794" y="199" fill="#9a9aa0">TypeScript</text><animate attributeName="opacity" calcMode="discrete" values="1;0;0;0;0" keyTimes="0.0000;0.2000;0.4000;0.6000;0.8000" dur="17.5s" repeatCount="indefinite"/></g><g opacity="0"><rect x="42" y="226" width="154" height="26" rx="13" fill="#0a63fe"/><g transform="translate(52,232) scale(0.938)"><path d="M0 3.5a2 2 0 0 1 2-2h4l1.6 1.6H14a2 2 0 0 1 2 2V13a2 2 0 0 1-2 2H2a2 2 0 0 1-2-2Z" fill="#ffffff"/><path d="M0 6h16v7a2 2 0 0 1-2 2H2a2 2 0 0 1-2-2Z" fill="#ffffff" fill-opacity="0.75"/></g><text class="b" x="76" y="243" fill="#ffffff">focus</text><path d="M454 92v13" stroke="#3a3a3d" stroke-width="1"/><path d="M594 92v13" stroke="#3a3a3d" stroke-width="1"/><text class="s" x="254" y="103" text-anchor="start" fill="#9a9aa0">Name</text><text class="s" x="464" y="103" text-anchor="start" fill="#9a9aa0">Kind</text><text class="s" x="604" y="103" text-anchor="start" fill="#9a9aa0">Comments</text><path d="M436 100l3.5-4 3.5 4" fill="none" stroke="#9a9aa0" stroke-width="1.4" stroke-linecap="round" stroke-linejoin="round"/><path d="M232 116h7l4 4v10a1 1 0 0 1-1 1H232a1 1 0 0 1-1-1V117a1 1 0 0 1 1-1Z" fill="#1f1f21" stroke="#9a9aa0" stroke-width="1.1"/><path d="M239 116v4h4" fill="none" stroke="#9a9aa0" stroke-width="1.1"/><path d="M234 122.0h6.5" stroke="#9a9aa0" stroke-width="1"/><path d="M234 124.6h6.5" stroke="#9a9aa0" stroke-width="1"/><path d="M234 127.2h6.5" stroke="#9a9aa0" stroke-width="1"/><text class="b" x="254" y="127" fill="#f5f5f7">authorization.md</text><text class="b" x="464" y="127" text-anchor="start" fill="#9a9aa0">Bug class</text><text class="b" x="604" y="127" text-anchor="start" fill="#9a9aa0">IDOR, tenant isolation, privilege boundaries</text><rect x="204" y="135" width="730" height="24" fill="#252528"/><path d="M232 140h7l4 4v10a1 1 0 0 1-1 1H232a1 1 0 0 1-1-1V141a1 1 0 0 1 1-1Z" fill="#1f1f21" stroke="#9a9aa0" stroke-width="1.1"/><path d="M239 140v4h4" fill="none" stroke="#9a9aa0" stroke-width="1.1"/><path d="M234 146.0h6.5" stroke="#9a9aa0" stroke-width="1"/><path d="M234 148.6h6.5" stroke="#9a9aa0" stroke-width="1"/><path d="M234 151.2h6.5" stroke="#9a9aa0" stroke-width="1"/><text class="b" x="254" y="151" fill="#f5f5f7">ssrf.md</text><text class="b" x="464" y="151" text-anchor="start" fill="#9a9aa0">Bug class</text><text class="b" x="604" y="151" text-anchor="start" fill="#9a9aa0">internal metadata, blind callbacks, filter bypass</text><path d="M232 164h7l4 4v10a1 1 0 0 1-1 1H232a1 1 0 0 1-1-1V165a1 1 0 0 1 1-1Z" fill="#1f1f21" stroke="#9a9aa0" stroke-width="1.1"/><path d="M239 164v4h4" fill="none" stroke="#9a9aa0" stroke-width="1.1"/><path d="M234 170.0h6.5" stroke="#9a9aa0" stroke-width="1"/><path d="M234 172.6h6.5" stroke="#9a9aa0" stroke-width="1"/><path d="M234 175.2h6.5" stroke="#9a9aa0" stroke-width="1"/><text class="b" x="254" y="175" fill="#f5f5f7">exposed-config.md</text><text class="b" x="464" y="175" text-anchor="start" fill="#9a9aa0">Bug class</text><text class="b" x="604" y="175" text-anchor="start" fill="#9a9aa0">leaked env, build manifests, open storage</text><rect x="204" y="183" width="730" height="24" fill="#252528"/><path d="M232 188h7l4 4v10a1 1 0 0 1-1 1H232a1 1 0 0 1-1-1V189a1 1 0 0 1 1-1Z" fill="#1f1f21" stroke="#9a9aa0" stroke-width="1.1"/><path d="M239 188v4h4" fill="none" stroke="#9a9aa0" stroke-width="1.1"/><path d="M234 194.0h6.5" stroke="#9a9aa0" stroke-width="1"/><path d="M234 196.6h6.5" stroke="#9a9aa0" stroke-width="1"/><path d="M234 199.2h6.5" stroke="#9a9aa0" stroke-width="1"/><text class="b" x="254" y="199" fill="#f5f5f7">local-first.md</text><text class="b" x="464" y="199" text-anchor="start" fill="#9a9aa0">Principle</text><text class="b" x="604" y="199" text-anchor="start" fill="#9a9aa0">if it runs in the browser it needs no server</text><path d="M232 212h7l4 4v10a1 1 0 0 1-1 1H232a1 1 0 0 1-1-1V213a1 1 0 0 1 1-1Z" fill="#1f1f21" stroke="#9a9aa0" stroke-width="1.1"/><path d="M239 212v4h4" fill="none" stroke="#9a9aa0" stroke-width="1.1"/><path d="M234 218.0h6.5" stroke="#9a9aa0" stroke-width="1"/><path d="M234 220.6h6.5" stroke="#9a9aa0" stroke-width="1"/><path d="M234 223.2h6.5" stroke="#9a9aa0" stroke-width="1"/><text class="b" x="254" y="223" fill="#f5f5f7">reporting.md</text><text class="b" x="464" y="223" text-anchor="start" fill="#9a9aa0">Principle</text><text class="b" x="604" y="223" text-anchor="start" fill="#9a9aa0">reproducible steps, demonstrated impact</text><animate attributeName="opacity" calcMode="discrete" values="0;1;0;0;0" keyTimes="0.0000;0.2000;0.4000;0.6000;0.8000" dur="17.5s" repeatCount="indefinite"/></g><g opacity="0"><rect x="42" y="254" width="154" height="26" rx="13" fill="#0a63fe"/><g transform="translate(52,260) scale(0.938)"><path d="M0 3.5a2 2 0 0 1 2-2h4l1.6 1.6H14a2 2 0 0 1 2 2V13a2 2 0 0 1-2 2H2a2 2 0 0 1-2-2Z" fill="#ffffff"/><path d="M0 6h16v7a2 2 0 0 1-2 2H2a2 2 0 0 1-2-2Z" fill="#ffffff" fill-opacity="0.75"/></g><text class="b" x="76" y="271" fill="#ffffff">toolbox</text><path d="M454 92v13" stroke="#3a3a3d" stroke-width="1"/><path d="M594 92v13" stroke="#3a3a3d" stroke-width="1"/><text class="s" x="254" y="103" text-anchor="start" fill="#9a9aa0">Name</text><text class="s" x="464" y="103" text-anchor="start" fill="#9a9aa0">Kind</text><text class="s" x="604" y="103" text-anchor="start" fill="#9a9aa0">Comments</text><path d="M436 100l3.5-4 3.5 4" fill="none" stroke="#9a9aa0" stroke-width="1.4" stroke-linecap="round" stroke-linejoin="round"/><rect x="231" y="116" width="14" height="14" rx="4.4" fill="#0a63fe" fill-opacity="0.9"/><circle cx="238" cy="123" r="2.6" fill="#ffffff"/><text class="b" x="254" y="127" fill="#f5f5f7">TypeScript</text><text class="b" x="464" y="127" text-anchor="start" fill="#9a9aa0">Language</text><text class="b" x="604" y="127" text-anchor="start" fill="#9a9aa0">apps and CLIs that share one core</text><rect x="204" y="135" width="730" height="24" fill="#252528"/><rect x="231" y="140" width="14" height="14" rx="4.4" fill="#0a63fe" fill-opacity="0.9"/><circle cx="238" cy="147" r="2.6" fill="#ffffff"/><text class="b" x="254" y="151" fill="#f5f5f7">Node</text><text class="b" x="464" y="151" text-anchor="start" fill="#9a9aa0">Runtime</text><text class="b" x="604" y="151" text-anchor="start" fill="#9a9aa0">build scripts and CLI entry points</text><rect x="231" y="164" width="14" height="14" rx="4.4" fill="#0a63fe" fill-opacity="0.9"/><circle cx="238" cy="171" r="2.6" fill="#ffffff"/><text class="b" x="254" y="175" fill="#f5f5f7">PowerShell</text><text class="b" x="464" y="175" text-anchor="start" fill="#9a9aa0">Shell</text><text class="b" x="604" y="175" text-anchor="start" fill="#9a9aa0">Windows tooling, snipsearch</text><rect x="204" y="183" width="730" height="24" fill="#252528"/><rect x="231" y="188" width="14" height="14" rx="4.4" fill="#0a63fe" fill-opacity="0.9"/><circle cx="238" cy="195" r="2.6" fill="#ffffff"/><text class="b" x="254" y="199" fill="#f5f5f7">Python</text><text class="b" x="464" y="199" text-anchor="start" fill="#9a9aa0">Language</text><text class="b" x="604" y="199" text-anchor="start" fill="#9a9aa0">glue, generators, quick analysis</text><rect x="231" y="212" width="14" height="14" rx="4.4" fill="#0a63fe" fill-opacity="0.9"/><circle cx="238" cy="219" r="2.6" fill="#ffffff"/><text class="b" x="254" y="223" fill="#f5f5f7">Burp Suite</text><text class="b" x="464" y="223" text-anchor="start" fill="#9a9aa0">Proxy</text><text class="b" x="604" y="223" text-anchor="start" fill="#9a9aa0">every request in an engagement</text><rect x="204" y="231" width="730" height="24" fill="#252528"/><rect x="231" y="236" width="14" height="14" rx="4.4" fill="#0a63fe" fill-opacity="0.9"/><circle cx="238" cy="243" r="2.6" fill="#ffffff"/><text class="b" x="254" y="247" fill="#f5f5f7">Docker</text><text class="b" x="464" y="247" text-anchor="start" fill="#9a9aa0">Container</text><text class="b" x="604" y="247" text-anchor="start" fill="#9a9aa0">reproducible test environments</text><rect x="231" y="260" width="14" height="14" rx="4.4" fill="#0a63fe" fill-opacity="0.9"/><circle cx="238" cy="267" r="2.6" fill="#ffffff"/><text class="b" x="254" y="271" fill="#f5f5f7">Kubernetes</text><text class="b" x="464" y="271" text-anchor="start" fill="#9a9aa0">Orchestrator</text><text class="b" x="604" y="271" text-anchor="start" fill="#9a9aa0">lab clusters on MicroK8s</text><rect x="204" y="279" width="730" height="24" fill="#252528"/><rect x="231" y="284" width="14" height="14" rx="4.4" fill="#0a63fe" fill-opacity="0.9"/><circle cx="238" cy="291" r="2.6" fill="#ffffff"/><text class="b" x="254" y="295" fill="#f5f5f7">WSL</text><text class="b" x="464" y="295" text-anchor="start" fill="#9a9aa0">Subsystem</text><text class="b" x="604" y="295" text-anchor="start" fill="#9a9aa0">Linux tooling on a Windows machine</text><animate attributeName="opacity" calcMode="discrete" values="0;0;1;0;0" keyTimes="0.0000;0.2000;0.4000;0.6000;0.8000" dur="17.5s" repeatCount="indefinite"/></g><g opacity="0"><rect x="42" y="282" width="154" height="26" rx="13" fill="#0a63fe"/><g transform="translate(52,288) scale(0.938)"><path d="M0 3.5a2 2 0 0 1 2-2h4l1.6 1.6H14a2 2 0 0 1 2 2V13a2 2 0 0 1-2 2H2a2 2 0 0 1-2-2Z" fill="#ffffff"/><path d="M0 6h16v7a2 2 0 0 1-2 2H2a2 2 0 0 1-2-2Z" fill="#ffffff" fill-opacity="0.75"/></g><text class="b" x="76" y="299" fill="#ffffff">certifications</text><path d="M524 92v13" stroke="#3a3a3d" stroke-width="1"/><path d="M654 92v13" stroke="#3a3a3d" stroke-width="1"/><path d="M794 92v13" stroke="#3a3a3d" stroke-width="1"/><text class="s" x="254" y="103" text-anchor="start" fill="#9a9aa0">Name</text><text class="s" x="534" y="103" text-anchor="start" fill="#9a9aa0">Kind</text><text class="s" x="664" y="103" text-anchor="start" fill="#9a9aa0">Date Modified</text><text class="s" x="804" y="103" text-anchor="start" fill="#9a9aa0">Comments</text><path d="M506 100l3.5-4 3.5 4" fill="none" stroke="#9a9aa0" stroke-width="1.4" stroke-linecap="round" stroke-linejoin="round"/><path d="M232 116h7l4 4v10a1 1 0 0 1-1 1H232a1 1 0 0 1-1-1V117a1 1 0 0 1 1-1Z" fill="#1f1f21" stroke="#9a9aa0" stroke-width="1.1"/><path d="M239 116v4h4" fill="none" stroke="#9a9aa0" stroke-width="1.1"/><path d="M234 122.0h6.5" stroke="#9a9aa0" stroke-width="1"/><path d="M234 124.6h6.5" stroke="#9a9aa0" stroke-width="1"/><path d="M234 127.2h6.5" stroke="#9a9aa0" stroke-width="1"/><text class="b" x="254" y="127" fill="#f5f5f7">aws-cloud-genai.pdf</text><text class="b" x="534" y="127" text-anchor="start" fill="#9a9aa0">Dicoding</text><text class="b" x="664" y="127" text-anchor="start" fill="#9a9aa0">Feb 2026</text><text class="b" x="804" y="127" text-anchor="start" fill="#9a9aa0">2VX302O83XYQ</text><rect x="204" y="135" width="730" height="24" fill="#252528"/><path d="M232 140h7l4 4v10a1 1 0 0 1-1 1H232a1 1 0 0 1-1-1V141a1 1 0 0 1 1-1Z" fill="#1f1f21" stroke="#9a9aa0" stroke-width="1.1"/><path d="M239 140v4h4" fill="none" stroke="#9a9aa0" stroke-width="1.1"/><path d="M234 146.0h6.5" stroke="#9a9aa0" stroke-width="1"/><path d="M234 148.6h6.5" stroke="#9a9aa0" stroke-width="1"/><path d="M234 151.2h6.5" stroke="#9a9aa0" stroke-width="1"/><text class="b" x="254" y="151" fill="#f5f5f7">azure-genai.pdf</text><text class="b" x="534" y="151" text-anchor="start" fill="#9a9aa0">Dicoding</text><text class="b" x="664" y="151" text-anchor="start" fill="#9a9aa0">Apr 2026</text><text class="b" x="804" y="151" text-anchor="start" fill="#9a9aa0">0LZ0YR3LNX65</text><path d="M232 164h7l4 4v10a1 1 0 0 1-1 1H232a1 1 0 0 1-1-1V165a1 1 0 0 1 1-1Z" fill="#1f1f21" stroke="#9a9aa0" stroke-width="1.1"/><path d="M239 164v4h4" fill="none" stroke="#9a9aa0" stroke-width="1.1"/><path d="M234 170.0h6.5" stroke="#9a9aa0" stroke-width="1"/><path d="M234 172.6h6.5" stroke="#9a9aa0" stroke-width="1"/><path d="M234 175.2h6.5" stroke="#9a9aa0" stroke-width="1"/><text class="b" x="254" y="175" fill="#f5f5f7">backend-javascript.pdf</text><text class="b" x="534" y="175" text-anchor="start" fill="#9a9aa0">Dicoding</text><text class="b" x="664" y="175" text-anchor="start" fill="#9a9aa0">Feb 2026</text><text class="b" x="804" y="175" text-anchor="start" fill="#9a9aa0">L4PQ93142PO1</text><rect x="204" y="183" width="730" height="24" fill="#252528"/><path d="M232 188h7l4 4v10a1 1 0 0 1-1 1H232a1 1 0 0 1-1-1V189a1 1 0 0 1 1-1Z" fill="#1f1f21" stroke="#9a9aa0" stroke-width="1.1"/><path d="M239 188v4h4" fill="none" stroke="#9a9aa0" stroke-width="1.1"/><path d="M234 194.0h6.5" stroke="#9a9aa0" stroke-width="1"/><path d="M234 196.6h6.5" stroke="#9a9aa0" stroke-width="1"/><path d="M234 199.2h6.5" stroke="#9a9aa0" stroke-width="1"/><text class="b" x="254" y="199" fill="#f5f5f7">javascript-dasar.pdf</text><text class="b" x="534" y="199" text-anchor="start" fill="#9a9aa0">Dicoding</text><text class="b" x="664" y="199" text-anchor="start" fill="#9a9aa0">Feb 2026</text><text class="b" x="804" y="199" text-anchor="start" fill="#9a9aa0">KEXLQ313WPG2</text><path d="M232 212h7l4 4v10a1 1 0 0 1-1 1H232a1 1 0 0 1-1-1V213a1 1 0 0 1 1-1Z" fill="#1f1f21" stroke="#9a9aa0" stroke-width="1.1"/><path d="M239 212v4h4" fill="none" stroke="#9a9aa0" stroke-width="1.1"/><path d="M234 218.0h6.5" stroke="#9a9aa0" stroke-width="1"/><path d="M234 220.6h6.5" stroke="#9a9aa0" stroke-width="1"/><path d="M234 223.2h6.5" stroke="#9a9aa0" stroke-width="1"/><text class="b" x="254" y="223" fill="#f5f5f7">microsoft-fabric.pdf</text><text class="b" x="534" y="223" text-anchor="start" fill="#9a9aa0">Dicoding</text><text class="b" x="664" y="223" text-anchor="start" fill="#9a9aa0">Mar 2026</text><text class="b" x="804" y="223" text-anchor="start" fill="#9a9aa0">4EXG1NYVDPRL</text><rect x="204" y="231" width="730" height="24" fill="#252528"/><path d="M232 236h7l4 4v10a1 1 0 0 1-1 1H232a1 1 0 0 1-1-1V237a1 1 0 0 1 1-1Z" fill="#1f1f21" stroke="#9a9aa0" stroke-width="1.1"/><path d="M239 236v4h4" fill="none" stroke="#9a9aa0" stroke-width="1.1"/><path d="M234 242.0h6.5" stroke="#9a9aa0" stroke-width="1"/><path d="M234 244.6h6.5" stroke="#9a9aa0" stroke-width="1"/><path d="M234 247.2h6.5" stroke="#9a9aa0" stroke-width="1"/><text class="b" x="254" y="247" fill="#f5f5f7">python-dasar.pdf</text><text class="b" x="534" y="247" text-anchor="start" fill="#9a9aa0">Dicoding</text><text class="b" x="664" y="247" text-anchor="start" fill="#9a9aa0">Apr 2026</text><text class="b" x="804" y="247" text-anchor="start" fill="#9a9aa0">KEXLQ78KWPG2</text><animate attributeName="opacity" calcMode="discrete" values="0;0;0;1;0" keyTimes="0.0000;0.2000;0.4000;0.6000;0.8000" dur="17.5s" repeatCount="indefinite"/></g><g opacity="0"><rect x="42" y="310" width="154" height="26" rx="13" fill="#0a63fe"/><g transform="translate(52,316) scale(0.938)"><path d="M0 3.5a2 2 0 0 1 2-2h4l1.6 1.6H14a2 2 0 0 1 2 2V13a2 2 0 0 1-2 2H2a2 2 0 0 1-2-2Z" fill="#ffffff"/><path d="M0 6h16v7a2 2 0 0 1-2 2H2a2 2 0 0 1-2-2Z" fill="#ffffff" fill-opacity="0.75"/></g><text class="b" x="76" y="327" fill="#ffffff">awards</text><path d="M494 92v13" stroke="#3a3a3d" stroke-width="1"/><path d="M624 92v13" stroke="#3a3a3d" stroke-width="1"/><path d="M739 92v13" stroke="#3a3a3d" stroke-width="1"/><text class="s" x="254" y="103" text-anchor="start" fill="#9a9aa0">Name</text><text class="s" x="504" y="103" text-anchor="start" fill="#9a9aa0">Kind</text><text class="s" x="634" y="103" text-anchor="start" fill="#9a9aa0">Date Modified</text><text class="s" x="749" y="103" text-anchor="start" fill="#9a9aa0">Comments</text><path d="M476 100l3.5-4 3.5 4" fill="none" stroke="#9a9aa0" stroke-width="1.4" stroke-linecap="round" stroke-linejoin="round"/><path d="M232 116h7l4 4v10a1 1 0 0 1-1 1H232a1 1 0 0 1-1-1V117a1 1 0 0 1 1-1Z" fill="#1f1f21" stroke="#9a9aa0" stroke-width="1.1"/><path d="M239 116v4h4" fill="none" stroke="#9a9aa0" stroke-width="1.1"/><path d="M234 122.0h6.5" stroke="#9a9aa0" stroke-width="1"/><path d="M234 124.6h6.5" stroke="#9a9aa0" stroke-width="1"/><path d="M234 127.2h6.5" stroke="#9a9aa0" stroke-width="1"/><text class="b" x="254" y="127" fill="#f5f5f7">technotainment-uiux.pdf</text><text class="b" x="504" y="127" text-anchor="start" fill="#9a9aa0">1st place</text><text class="b" x="634" y="127" text-anchor="start" fill="#9a9aa0">Jul 2026</text><text class="b" x="749" y="127" text-anchor="start" fill="#9a9aa0">Trunojoyo Madura</text><rect x="204" y="135" width="730" height="24" fill="#252528"/><path d="M232 140h7l4 4v10a1 1 0 0 1-1 1H232a1 1 0 0 1-1-1V141a1 1 0 0 1 1-1Z" fill="#1f1f21" stroke="#9a9aa0" stroke-width="1.1"/><path d="M239 140v4h4" fill="none" stroke="#9a9aa0" stroke-width="1.1"/><path d="M234 146.0h6.5" stroke="#9a9aa0" stroke-width="1"/><path d="M234 148.6h6.5" stroke="#9a9aa0" stroke-width="1"/><path d="M234 151.2h6.5" stroke="#9a9aa0" stroke-width="1"/><text class="b" x="254" y="151" fill="#f5f5f7">iofest-webdev.pdf</text><text class="b" x="504" y="151" text-anchor="start" fill="#9a9aa0">1st place</text><text class="b" x="634" y="151" text-anchor="start" fill="#9a9aa0">Jun 2026</text><text class="b" x="749" y="151" text-anchor="start" fill="#9a9aa0">Tarumanagara</text><path d="M232 164h7l4 4v10a1 1 0 0 1-1 1H232a1 1 0 0 1-1-1V165a1 1 0 0 1 1-1Z" fill="#1f1f21" stroke="#9a9aa0" stroke-width="1.1"/><path d="M239 164v4h4" fill="none" stroke="#9a9aa0" stroke-width="1.1"/><path d="M234 170.0h6.5" stroke="#9a9aa0" stroke-width="1"/><path d="M234 172.6h6.5" stroke="#9a9aa0" stroke-width="1"/><path d="M234 175.2h6.5" stroke="#9a9aa0" stroke-width="1"/><text class="b" x="254" y="175" fill="#f5f5f7">lks-cybersecurity.pdf</text><text class="b" x="504" y="175" text-anchor="start" fill="#9a9aa0">2nd place</text><text class="b" x="634" y="175" text-anchor="start" fill="#9a9aa0">Jun 2026</text><text class="b" x="749" y="175" text-anchor="start" fill="#9a9aa0">Disdik Jawa Barat</text><rect x="204" y="183" width="730" height="24" fill="#252528"/><path d="M232 188h7l4 4v10a1 1 0 0 1-1 1H232a1 1 0 0 1-1-1V189a1 1 0 0 1 1-1Z" fill="#1f1f21" stroke="#9a9aa0" stroke-width="1.1"/><path d="M239 188v4h4" fill="none" stroke="#9a9aa0" stroke-width="1.1"/><path d="M234 194.0h6.5" stroke="#9a9aa0" stroke-width="1"/><path d="M234 196.6h6.5" stroke="#9a9aa0" stroke-width="1"/><path d="M234 199.2h6.5" stroke="#9a9aa0" stroke-width="1"/><text class="b" x="254" y="199" fill="#f5f5f7">ibfest-cyberlite.pdf</text><text class="b" x="504" y="199" text-anchor="start" fill="#9a9aa0">2nd place</text><text class="b" x="634" y="199" text-anchor="start" fill="#9a9aa0">May 2026</text><text class="b" x="749" y="199" text-anchor="start" fill="#9a9aa0">Telkomsel</text><path d="M232 212h7l4 4v10a1 1 0 0 1-1 1H232a1 1 0 0 1-1-1V213a1 1 0 0 1 1-1Z" fill="#1f1f21" stroke="#9a9aa0" stroke-width="1.1"/><path d="M239 212v4h4" fill="none" stroke="#9a9aa0" stroke-width="1.1"/><path d="M234 218.0h6.5" stroke="#9a9aa0" stroke-width="1"/><path d="M234 220.6h6.5" stroke="#9a9aa0" stroke-width="1"/><path d="M234 223.2h6.5" stroke="#9a9aa0" stroke-width="1"/><text class="b" x="254" y="223" fill="#f5f5f7">samsung-ai.pdf</text><text class="b" x="504" y="223" text-anchor="start" fill="#9a9aa0">Winner</text><text class="b" x="634" y="223" text-anchor="start" fill="#9a9aa0">May 2026</text><text class="b" x="749" y="223" text-anchor="start" fill="#9a9aa0">Samsung Indonesia</text><rect x="204" y="231" width="730" height="24" fill="#252528"/><path d="M232 236h7l4 4v10a1 1 0 0 1-1 1H232a1 1 0 0 1-1-1V237a1 1 0 0 1 1-1Z" fill="#1f1f21" stroke="#9a9aa0" stroke-width="1.1"/><path d="M239 236v4h4" fill="none" stroke="#9a9aa0" stroke-width="1.1"/><path d="M234 242.0h6.5" stroke="#9a9aa0" stroke-width="1"/><path d="M234 244.6h6.5" stroke="#9a9aa0" stroke-width="1"/><path d="M234 247.2h6.5" stroke="#9a9aa0" stroke-width="1"/><text class="b" x="254" y="247" fill="#f5f5f7">ehax-ctf.pdf</text><text class="b" x="504" y="247" text-anchor="start" fill="#9a9aa0">Top 88 of 887</text><text class="b" x="634" y="247" text-anchor="start" fill="#9a9aa0">Mar 2026</text><text class="b" x="749" y="247" text-anchor="start" fill="#9a9aa0">Delhi Technological University</text><path d="M232 260h7l4 4v10a1 1 0 0 1-1 1H232a1 1 0 0 1-1-1V261a1 1 0 0 1 1-1Z" fill="#1f1f21" stroke="#9a9aa0" stroke-width="1.1"/><path d="M239 260v4h4" fill="none" stroke="#9a9aa0" stroke-width="1.1"/><path d="M234 266.0h6.5" stroke="#9a9aa0" stroke-width="1"/><path d="M234 268.6h6.5" stroke="#9a9aa0" stroke-width="1"/><path d="M234 271.2h6.5" stroke="#9a9aa0" stroke-width="1"/><text class="b" x="254" y="271" fill="#f5f5f7">jhic-infra.pdf</text><text class="b" x="504" y="271" text-anchor="start" fill="#9a9aa0">Semi-finalist</text><text class="b" x="634" y="271" text-anchor="start" fill="#9a9aa0">Nov 2025</text><text class="b" x="749" y="271" text-anchor="start" fill="#9a9aa0">Jagoan Hosting</text><animate attributeName="opacity" calcMode="discrete" values="0;0;0;0;1" keyTimes="0.0000;0.2000;0.4000;0.6000;0.8000" dur="17.5s" repeatCount="indefinite"/></g></g><g class="still"><rect x="42" y="198" width="154" height="26" rx="13" fill="#0a63fe"/><g transform="translate(52,204) scale(0.938)"><path d="M0 3.5a2 2 0 0 1 2-2h4l1.6 1.6H14a2 2 0 0 1 2 2V13a2 2 0 0 1-2 2H2a2 2 0 0 1-2-2Z" fill="#ffffff"/><path d="M0 6h16v7a2 2 0 0 1-2 2H2a2 2 0 0 1-2-2Z" fill="#ffffff" fill-opacity="0.75"/></g><text class="b" x="76" y="215" fill="#ffffff">projects</text><path d="M494 92v13" stroke="#3a3a3d" stroke-width="1"/><path d="M664 92v13" stroke="#3a3a3d" stroke-width="1"/><path d="M764 92v13" stroke="#3a3a3d" stroke-width="1"/><text class="s" x="254" y="103" text-anchor="start" fill="#9a9aa0">Name</text><text class="s" x="504" y="103" text-anchor="start" fill="#9a9aa0">Date Modified</text><text class="s" x="754" y="103" text-anchor="end" fill="#9a9aa0">Size</text><text class="s" x="778" y="103" text-anchor="start" fill="#9a9aa0">Tags</text><path d="M476 100l3.5-4 3.5 4" fill="none" stroke="#9a9aa0" stroke-width="1.4" stroke-linecap="round" stroke-linejoin="round"/><path d="M218 119l4 4-4 4" fill="none" stroke="#9a9aa0" stroke-width="1.5" stroke-linecap="round" stroke-linejoin="round"/><g transform="translate(230,115) scale(1.000)"><path d="M0 3.5a2 2 0 0 1 2-2h4l1.6 1.6H14a2 2 0 0 1 2 2V13a2 2 0 0 1-2 2H2a2 2 0 0 1-2-2Z" fill="#4d9dfb"/><path d="M0 6h16v7a2 2 0 0 1-2 2H2a2 2 0 0 1-2-2Z" fill="#4d9dfb" fill-opacity="0.75"/></g><text class="b" x="254" y="127" fill="#f5f5f7">convert.in</text><text class="b" x="504" y="127" text-anchor="start" fill="#9a9aa0">Sep 3, 2026 at 00:28</text><text class="b" x="754" y="127" text-anchor="end" fill="#9a9aa0">1.3 MB</text><circle cx="782" cy="123" r="4.5" fill="#3178c6"/><text class="b" x="794" y="127" fill="#9a9aa0">TypeScript</text><rect x="204" y="135" width="730" height="24" fill="#252528"/><path d="M218 143l4 4-4 4" fill="none" stroke="#9a9aa0" stroke-width="1.5" stroke-linecap="round" stroke-linejoin="round"/><g transform="translate(230,139) scale(1.000)"><path d="M0 3.5a2 2 0 0 1 2-2h4l1.6 1.6H14a2 2 0 0 1 2 2V13a2 2 0 0 1-2 2H2a2 2 0 0 1-2-2Z" fill="#4d9dfb"/><path d="M0 6h16v7a2 2 0 0 1-2 2H2a2 2 0 0 1-2-2Z" fill="#4d9dfb" fill-opacity="0.75"/></g><text class="b" x="254" y="151" fill="#f5f5f7">qr.in</text><text class="b" x="504" y="151" text-anchor="start" fill="#9a9aa0">Sep 4, 2026 at 07:49</text><text class="b" x="754" y="151" text-anchor="end" fill="#9a9aa0">229 KB</text><circle cx="782" cy="147" r="4.5" fill="#e34c26"/><text class="b" x="794" y="151" fill="#9a9aa0">HTML</text><path d="M218 167l4 4-4 4" fill="none" stroke="#9a9aa0" stroke-width="1.5" stroke-linecap="round" stroke-linejoin="round"/><g transform="translate(230,163) scale(1.000)"><path d="M0 3.5a2 2 0 0 1 2-2h4l1.6 1.6H14a2 2 0 0 1 2 2V13a2 2 0 0 1-2 2H2a2 2 0 0 1-2-2Z" fill="#4d9dfb"/><path d="M0 6h16v7a2 2 0 0 1-2 2H2a2 2 0 0 1-2-2Z" fill="#4d9dfb" fill-opacity="0.75"/></g><text class="b" x="254" y="175" fill="#f5f5f7">snipsearch</text><text class="b" x="504" y="175" text-anchor="start" fill="#9a9aa0">Sep 4, 2026 at 00:08</text><text class="b" x="754" y="175" text-anchor="end" fill="#9a9aa0">29 KB</text><circle cx="782" cy="171" r="4.5" fill="#5391fe"/><text class="b" x="794" y="175" fill="#9a9aa0">PowerShell</text><rect x="204" y="183" width="730" height="24" fill="#252528"/><path d="M218 191l4 4-4 4" fill="none" stroke="#9a9aa0" stroke-width="1.5" stroke-linecap="round" stroke-linejoin="round"/><g transform="translate(230,187) scale(1.000)"><path d="M0 3.5a2 2 0 0 1 2-2h4l1.6 1.6H14a2 2 0 0 1 2 2V13a2 2 0 0 1-2 2H2a2 2 0 0 1-2-2Z" fill="#4d9dfb"/><path d="M0 6h16v7a2 2 0 0 1-2 2H2a2 2 0 0 1-2-2Z" fill="#4d9dfb" fill-opacity="0.75"/></g><text class="b" x="254" y="199" fill="#f5f5f7">stelegraphy</text><text class="b" x="504" y="199" text-anchor="start" fill="#9a9aa0">Sep 3, 2026 at 10:26</text><text class="b" x="754" y="199" text-anchor="end" fill="#9a9aa0">380 KB</text><circle cx="782" cy="195" r="4.5" fill="#3178c6"/><text class="b" x="794" y="199" fill="#9a9aa0">TypeScript</text></g></g><circle cx="54" cy="60" r="6" fill="#ed6a5f" stroke="#e24b41" stroke-width="0.5"/><circle cx="74" cy="60" r="6" fill="#f6be50" stroke="#e1a73e" stroke-width="0.5"/><circle cx="94" cy="60" r="6" fill="#61c555" stroke="#2dac2f" stroke-width="0.5"/><path d="M60 34.75h848" stroke="#ffffff" stroke-opacity="0.35" stroke-width="1.5"/><rect x="34.5" y="34.5" width="899" height="343" rx="26" fill="none" stroke="#ffffff" stroke-opacity="0.14" stroke-width="1"/>
<rect x="216" y="46" width="66" height="28" rx="14.0" fill="#3a3a3e" fill-opacity="0.85"/><path d="M236 54l-5 6 5 6" fill="none" stroke="#d8d8dc" stroke-width="1.8" stroke-linecap="round" stroke-linejoin="round"/><path d="M262 54l5 6-5 6" fill="none" stroke="#d8d8dc" stroke-width="1.8" stroke-linecap="round" stroke-linejoin="round"/><g class="cycle"><g opacity="1"><text class="w" x="300" y="66" fill="#f5f5f7">projects</text><animate attributeName="opacity" calcMode="discrete" values="1;0;0;0;0" keyTimes="0.0000;0.2000;0.4000;0.6000;0.8000" dur="17.5s" repeatCount="indefinite"/></g><g opacity="0"><text class="w" x="300" y="66" fill="#f5f5f7">focus</text><animate attributeName="opacity" calcMode="discrete" values="0;1;0;0;0" keyTimes="0.0000;0.2000;0.4000;0.6000;0.8000" dur="17.5s" repeatCount="indefinite"/></g><g opacity="0"><text class="w" x="300" y="66" fill="#f5f5f7">toolbox</text><animate attributeName="opacity" calcMode="discrete" values="0;0;1;0;0" keyTimes="0.0000;0.2000;0.4000;0.6000;0.8000" dur="17.5s" repeatCount="indefinite"/></g><g opacity="0"><text class="w" x="300" y="66" fill="#f5f5f7">certifications</text><animate attributeName="opacity" calcMode="discrete" values="0;0;0;1;0" keyTimes="0.0000;0.2000;0.4000;0.6000;0.8000" dur="17.5s" repeatCount="indefinite"/></g><g opacity="0"><text class="w" x="300" y="66" fill="#f5f5f7">awards</text><animate attributeName="opacity" calcMode="discrete" values="0;0;0;0;1" keyTimes="0.0000;0.2000;0.4000;0.6000;0.8000" dur="17.5s" repeatCount="indefinite"/></g></g><g class="still"><text class="w" x="300" y="66" fill="#f5f5f7">projects</text></g><rect x="870" y="46" width="44" height="28" rx="14.0" fill="#3a3a3e" fill-opacity="0.85"/><circle cx="884 " cy="59" r="5.5" fill="none" stroke="#d8d8dc" stroke-width="1.6"/><path d="M888 63l4 4" stroke="#d8d8dc" stroke-width="1.6" stroke-linecap="round"/><rect x="818" y="46" width="44" height="28" rx="14.0" fill="#3a3a3e" fill-opacity="0.85"/><circle cx="827" cy="60" r="1.5" fill="#d8d8dc"/><circle cx="832" cy="60" r="1.5" fill="#d8d8dc"/><circle cx="837" cy="60" r="1.5" fill="#d8d8dc"/><circle cx="832 " cy="60" r="8" fill="none" stroke="#d8d8dc" stroke-width="1.3" stroke-opacity="0.7"/><rect x="766" y="46" width="44" height="28" rx="14.0" fill="#3a3a3e" fill-opacity="0.85"/><path d="M774.5 54.5h6.5l6.5 6.5-6.5 6-6.5-6.5Z" fill="none" stroke="#d8d8dc" stroke-width="1.6" stroke-linejoin="round"/><circle cx="778" cy="58" r="1.4" fill="#d8d8dc"/><rect x="714" y="46" width="44" height="28" rx="14.0" fill="#3a3a3e" fill-opacity="0.85"/><path d="M729 63V53m0 0-3.5 3.5M729 53l3.5 3.5" fill="none" stroke="#d8d8dc" stroke-width="1.6" stroke-linecap="round" stroke-linejoin="round"/><path d="M724 59H722.5v7.5h13V59H734" fill="none" stroke="#d8d8dc" stroke-width="1.6" stroke-linecap="round" stroke-linejoin="round"/><rect x="662" y="46" width="44" height="28" rx="14.0" fill="#3a3a3e" fill-opacity="0.85"/><rect x="670.0" y="54.0" width="4" height="4" rx="1.2" fill="#d8d8dc"/><rect x="675.5" y="54.0" width="4" height="4" rx="1.2" fill="#d8d8dc"/><rect x="681.0" y="54.0" width="4" height="4" rx="1.2" fill="#d8d8dc"/><rect x="670.0" y="59.5" width="4" height="4" rx="1.2" fill="#d8d8dc"/><rect x="675.5" y="59.5" width="4" height="4" rx="1.2" fill="#d8d8dc"/><rect x="681.0" y="59.5" width="4" height="4" rx="1.2" fill="#d8d8dc"/><path d="M688 58l2.5 3 2.5-3" fill="none" stroke="#d8d8dc" stroke-width="1.6" stroke-linecap="round" stroke-linejoin="round"/><rect x="580" y="46" width="74" height="28" rx="14.0" fill="#3a3a3e" fill-opacity="0.85"/><circle cx="589" cy="55" r="1.1" fill="#d8d8dc"/><path d="M593 55h9" stroke="#d8d8dc" stroke-width="1.6" stroke-linecap="round"/><circle cx="589" cy="60" r="1.1" fill="#d8d8dc"/><path d="M593 60h9" stroke="#d8d8dc" stroke-width="1.6" stroke-linecap="round"/><circle cx="589" cy="65" r="1.1" fill="#d8d8dc"/><path d="M593 65h9" stroke="#d8d8dc" stroke-width="1.6" stroke-linecap="round"/><path d="M621 57l3-3.5 3 3.5" fill="none" stroke="#d8d8dc" stroke-width="1.6" stroke-linecap="round" stroke-linejoin="round"/><path d="M621 61l3 3.5 3-3.5" fill="none" stroke="#d8d8dc" stroke-width="1.6" stroke-linecap="round" stroke-linejoin="round"/>
</svg>
